<mxfile host="app.diagrams.net" modified="2022-10-11T17:48:55.583Z" agent="5.0 (Windows NT 10.0; Win64; x64) AppleWebKit/537.36 (KHTML, like Gecko) Chrome/99.0.4844.82 Safari/537.36" etag="CcJYfu8Vpsd8rFf6ZyqY" version="20.4.0" type="github">
  <diagram id="XXVoLzYbmiX44hBND2YO" name="Page-1">
    <mxGraphModel dx="2048" dy="644" grid="1" gridSize="10" guides="1" tooltips="1" connect="1" arrows="1" fold="1" page="1" pageScale="1" pageWidth="827" pageHeight="1169" math="0" shadow="0">
      <root>
        <mxCell id="0" />
        <mxCell id="1" parent="0" />
        <mxCell id="h2bpIm9hSYqEz8xx1qtz-16" style="edgeStyle=orthogonalEdgeStyle;rounded=0;orthogonalLoop=1;jettySize=auto;html=1;exitX=0.5;exitY=1;exitDx=0;exitDy=0;entryX=0.5;entryY=0;entryDx=0;entryDy=0;fontFamily=Helvetica;fontColor=default;fontSize=4;strokeWidth=1;endSize=4;" edge="1" parent="1" source="h2bpIm9hSYqEz8xx1qtz-10" target="h2bpIm9hSYqEz8xx1qtz-12">
          <mxGeometry relative="1" as="geometry" />
        </mxCell>
        <mxCell id="h2bpIm9hSYqEz8xx1qtz-10" value="&lt;i&gt;Начало&lt;/i&gt;" style="rounded=1;whiteSpace=wrap;html=1;shadow=0;sketch=0;glass=0;arcSize=50;" vertex="1" parent="1">
          <mxGeometry x="-160" y="60" width="220" height="60" as="geometry" />
        </mxCell>
        <mxCell id="h2bpIm9hSYqEz8xx1qtz-18" style="edgeStyle=orthogonalEdgeStyle;rounded=0;orthogonalLoop=1;jettySize=auto;html=1;exitX=0.5;exitY=1;exitDx=0;exitDy=0;entryX=0.5;entryY=0;entryDx=0;entryDy=0;strokeWidth=1;fontFamily=Helvetica;fontSize=4;fontColor=default;endSize=4;" edge="1" parent="1" source="h2bpIm9hSYqEz8xx1qtz-12" target="h2bpIm9hSYqEz8xx1qtz-13">
          <mxGeometry relative="1" as="geometry" />
        </mxCell>
        <mxCell id="h2bpIm9hSYqEz8xx1qtz-12" value="&lt;i&gt;Программное средство подключается к базе данных&lt;/i&gt;" style="shape=process;whiteSpace=wrap;html=1;backgroundOutline=1;rounded=1;shadow=0;glass=0;sketch=0;fontFamily=Helvetica;arcSize=0;" vertex="1" parent="1">
          <mxGeometry x="-160" y="160" width="220" height="90" as="geometry" />
        </mxCell>
        <mxCell id="h2bpIm9hSYqEz8xx1qtz-19" style="edgeStyle=orthogonalEdgeStyle;rounded=0;orthogonalLoop=1;jettySize=auto;html=1;exitX=1;exitY=0.5;exitDx=0;exitDy=0;entryX=0;entryY=0.5;entryDx=0;entryDy=0;strokeWidth=1;fontFamily=Helvetica;fontSize=4;fontColor=default;endSize=4;" edge="1" parent="1" source="h2bpIm9hSYqEz8xx1qtz-13" target="h2bpIm9hSYqEz8xx1qtz-15">
          <mxGeometry relative="1" as="geometry" />
        </mxCell>
        <mxCell id="h2bpIm9hSYqEz8xx1qtz-21" style="edgeStyle=orthogonalEdgeStyle;rounded=0;orthogonalLoop=1;jettySize=auto;html=1;exitX=0.5;exitY=1;exitDx=0;exitDy=0;entryX=0.5;entryY=0;entryDx=0;entryDy=0;strokeWidth=1;fontFamily=Helvetica;fontSize=4;fontColor=default;endSize=4;" edge="1" parent="1" source="h2bpIm9hSYqEz8xx1qtz-13" target="h2bpIm9hSYqEz8xx1qtz-20">
          <mxGeometry relative="1" as="geometry" />
        </mxCell>
        <mxCell id="h2bpIm9hSYqEz8xx1qtz-13" value="&lt;i&gt;Соединение с БД установлено?&lt;/i&gt;" style="rhombus;whiteSpace=wrap;html=1;rounded=1;shadow=0;glass=0;sketch=0;fontFamily=Helvetica;arcSize=0;" vertex="1" parent="1">
          <mxGeometry x="-160" y="280" width="220" height="90" as="geometry" />
        </mxCell>
        <mxCell id="h2bpIm9hSYqEz8xx1qtz-27" style="edgeStyle=orthogonalEdgeStyle;rounded=0;orthogonalLoop=1;jettySize=auto;html=1;exitX=1;exitY=0.5;exitDx=0;exitDy=0;entryX=0;entryY=0.5;entryDx=0;entryDy=0;strokeWidth=1;fontFamily=Helvetica;fontSize=4;fontColor=default;endSize=4;" edge="1" parent="1" source="h2bpIm9hSYqEz8xx1qtz-15" target="h2bpIm9hSYqEz8xx1qtz-24">
          <mxGeometry relative="1" as="geometry" />
        </mxCell>
        <mxCell id="h2bpIm9hSYqEz8xx1qtz-15" value="&lt;i&gt;Программное средство&lt;br&gt;&amp;nbsp;выводит экран авторизации&lt;/i&gt;" style="shape=parallelogram;perimeter=parallelogramPerimeter;whiteSpace=wrap;html=1;fixedSize=1;rounded=1;shadow=0;glass=0;sketch=0;fontFamily=Helvetica;arcSize=0;align=center;" vertex="1" parent="1">
          <mxGeometry x="90" y="280" width="220" height="90" as="geometry" />
        </mxCell>
        <mxCell id="h2bpIm9hSYqEz8xx1qtz-23" style="edgeStyle=orthogonalEdgeStyle;rounded=0;orthogonalLoop=1;jettySize=auto;html=1;exitX=0.5;exitY=1;exitDx=0;exitDy=0;entryX=0.5;entryY=0;entryDx=0;entryDy=0;strokeWidth=1;fontFamily=Helvetica;fontSize=4;fontColor=default;endSize=4;" edge="1" parent="1" source="h2bpIm9hSYqEz8xx1qtz-20" target="h2bpIm9hSYqEz8xx1qtz-22">
          <mxGeometry relative="1" as="geometry" />
        </mxCell>
        <mxCell id="h2bpIm9hSYqEz8xx1qtz-20" value="&lt;i&gt;Программное средство&lt;br&gt;&amp;nbsp;выводит ошибку &lt;br&gt;подключения к БД&lt;/i&gt;" style="shape=parallelogram;perimeter=parallelogramPerimeter;whiteSpace=wrap;html=1;fixedSize=1;rounded=1;shadow=0;glass=0;sketch=0;fontFamily=Helvetica;arcSize=0;align=center;" vertex="1" parent="1">
          <mxGeometry x="-160" y="400" width="220" height="90" as="geometry" />
        </mxCell>
        <mxCell id="h2bpIm9hSYqEz8xx1qtz-22" value="&lt;i&gt;Конец&lt;/i&gt;" style="rounded=1;whiteSpace=wrap;html=1;shadow=0;sketch=0;glass=0;arcSize=50;" vertex="1" parent="1">
          <mxGeometry x="-160" y="525" width="220" height="60" as="geometry" />
        </mxCell>
        <mxCell id="h2bpIm9hSYqEz8xx1qtz-28" style="edgeStyle=orthogonalEdgeStyle;rounded=0;orthogonalLoop=1;jettySize=auto;html=1;exitX=1;exitY=0.5;exitDx=0;exitDy=0;strokeWidth=1;fontFamily=Helvetica;fontSize=4;fontColor=default;endSize=4;entryX=0;entryY=0.5;entryDx=0;entryDy=0;" edge="1" parent="1" source="h2bpIm9hSYqEz8xx1qtz-24" target="h2bpIm9hSYqEz8xx1qtz-26">
          <mxGeometry relative="1" as="geometry">
            <mxPoint x="629.9999999999995" y="325" as="targetPoint" />
          </mxGeometry>
        </mxCell>
        <mxCell id="h2bpIm9hSYqEz8xx1qtz-45" style="edgeStyle=orthogonalEdgeStyle;rounded=0;orthogonalLoop=1;jettySize=auto;html=1;exitX=0.5;exitY=0;exitDx=0;exitDy=0;entryX=0.5;entryY=1;entryDx=0;entryDy=0;strokeWidth=1;fontFamily=Helvetica;fontSize=12;fontColor=default;endSize=4;" edge="1" parent="1" source="h2bpIm9hSYqEz8xx1qtz-24" target="h2bpIm9hSYqEz8xx1qtz-44">
          <mxGeometry relative="1" as="geometry" />
        </mxCell>
        <mxCell id="h2bpIm9hSYqEz8xx1qtz-24" value="&lt;i&gt;Пользователь нажал&lt;br&gt;&amp;nbsp;кнопку регистрации?&lt;/i&gt;" style="rhombus;whiteSpace=wrap;html=1;rounded=1;shadow=0;glass=0;sketch=0;fontFamily=Helvetica;arcSize=0;" vertex="1" parent="1">
          <mxGeometry x="360" y="280" width="220" height="90" as="geometry" />
        </mxCell>
        <mxCell id="h2bpIm9hSYqEz8xx1qtz-31" style="edgeStyle=orthogonalEdgeStyle;rounded=0;orthogonalLoop=1;jettySize=auto;html=1;exitX=0.5;exitY=1;exitDx=0;exitDy=0;entryX=0.5;entryY=0;entryDx=0;entryDy=0;strokeWidth=1;fontFamily=Helvetica;fontSize=4;fontColor=default;endSize=4;" edge="1" parent="1" source="h2bpIm9hSYqEz8xx1qtz-26" target="h2bpIm9hSYqEz8xx1qtz-30">
          <mxGeometry relative="1" as="geometry" />
        </mxCell>
        <mxCell id="h2bpIm9hSYqEz8xx1qtz-42" style="edgeStyle=orthogonalEdgeStyle;rounded=0;orthogonalLoop=1;jettySize=auto;html=1;exitX=1;exitY=0.5;exitDx=0;exitDy=0;entryX=0;entryY=0.5;entryDx=0;entryDy=0;strokeWidth=1;fontFamily=Helvetica;fontSize=12;fontColor=default;endSize=4;" edge="1" parent="1" source="h2bpIm9hSYqEz8xx1qtz-26" target="h2bpIm9hSYqEz8xx1qtz-40">
          <mxGeometry relative="1" as="geometry" />
        </mxCell>
        <mxCell id="h2bpIm9hSYqEz8xx1qtz-26" value="&lt;i&gt;Пользователь ввёл &lt;br&gt;правильные логин и пароль?&lt;/i&gt;" style="rhombus;whiteSpace=wrap;html=1;rounded=1;shadow=0;glass=0;sketch=0;fontFamily=Helvetica;arcSize=0;" vertex="1" parent="1">
          <mxGeometry x="630" y="280" width="220" height="90" as="geometry" />
        </mxCell>
        <mxCell id="h2bpIm9hSYqEz8xx1qtz-38" style="edgeStyle=orthogonalEdgeStyle;rounded=0;orthogonalLoop=1;jettySize=auto;html=1;exitX=0.5;exitY=1;exitDx=0;exitDy=0;entryX=1;entryY=0.5;entryDx=0;entryDy=0;strokeWidth=1;fontFamily=Helvetica;fontSize=12;fontColor=default;endSize=4;" edge="1" parent="1" source="h2bpIm9hSYqEz8xx1qtz-30" target="h2bpIm9hSYqEz8xx1qtz-22">
          <mxGeometry relative="1" as="geometry" />
        </mxCell>
        <mxCell id="h2bpIm9hSYqEz8xx1qtz-58" style="edgeStyle=orthogonalEdgeStyle;rounded=0;orthogonalLoop=1;jettySize=auto;html=1;exitX=0;exitY=0.5;exitDx=0;exitDy=0;entryX=0;entryY=0.5;entryDx=0;entryDy=0;strokeWidth=1;fontFamily=Helvetica;fontSize=11;fontColor=default;endSize=4;" edge="1" parent="1" source="h2bpIm9hSYqEz8xx1qtz-30" target="h2bpIm9hSYqEz8xx1qtz-26">
          <mxGeometry relative="1" as="geometry" />
        </mxCell>
        <mxCell id="h2bpIm9hSYqEz8xx1qtz-30" value="&lt;i&gt;Пользователь решил &lt;br&gt;продолжить ввод?&lt;/i&gt;" style="rhombus;whiteSpace=wrap;html=1;rounded=1;shadow=0;glass=0;sketch=0;fontFamily=Helvetica;arcSize=0;" vertex="1" parent="1">
          <mxGeometry x="630" y="405" width="220" height="90" as="geometry" />
        </mxCell>
        <mxCell id="h2bpIm9hSYqEz8xx1qtz-35" value="&lt;font style=&quot;font-size: 12px;&quot;&gt;Да&lt;/font&gt;" style="text;html=1;strokeColor=none;fillColor=none;align=center;verticalAlign=middle;whiteSpace=wrap;rounded=0;shadow=0;glass=0;sketch=0;fontFamily=Helvetica;fontSize=4;fontColor=default;" vertex="1" parent="1">
          <mxGeometry x="50" y="290" width="60" height="30" as="geometry" />
        </mxCell>
        <mxCell id="h2bpIm9hSYqEz8xx1qtz-36" value="&lt;font style=&quot;font-size: 12px;&quot;&gt;Нет&lt;/font&gt;" style="text;html=1;strokeColor=none;fillColor=none;align=center;verticalAlign=middle;whiteSpace=wrap;rounded=0;shadow=0;glass=0;sketch=0;fontFamily=Helvetica;fontSize=4;fontColor=default;" vertex="1" parent="1">
          <mxGeometry x="-100" y="370" width="60" height="30" as="geometry" />
        </mxCell>
        <mxCell id="h2bpIm9hSYqEz8xx1qtz-37" value="&lt;font style=&quot;font-size: 12px;&quot;&gt;Нет&lt;/font&gt;" style="text;html=1;strokeColor=none;fillColor=none;align=center;verticalAlign=middle;whiteSpace=wrap;rounded=0;shadow=0;glass=0;sketch=0;fontFamily=Helvetica;fontSize=4;fontColor=default;" vertex="1" parent="1">
          <mxGeometry x="730" y="360" width="60" height="30" as="geometry" />
        </mxCell>
        <mxCell id="h2bpIm9hSYqEz8xx1qtz-39" value="&lt;font style=&quot;font-size: 12px;&quot;&gt;Нет&lt;/font&gt;" style="text;html=1;strokeColor=none;fillColor=none;align=center;verticalAlign=middle;whiteSpace=wrap;rounded=0;shadow=0;glass=0;sketch=0;fontFamily=Helvetica;fontSize=4;fontColor=default;" vertex="1" parent="1">
          <mxGeometry x="730" y="510" width="60" height="30" as="geometry" />
        </mxCell>
        <mxCell id="h2bpIm9hSYqEz8xx1qtz-43" style="edgeStyle=orthogonalEdgeStyle;rounded=0;orthogonalLoop=1;jettySize=auto;html=1;exitX=1;exitY=0.5;exitDx=0;exitDy=0;entryX=0;entryY=0.5;entryDx=0;entryDy=0;strokeWidth=1;fontFamily=Helvetica;fontSize=12;fontColor=default;endSize=4;" edge="1" parent="1" source="h2bpIm9hSYqEz8xx1qtz-40" target="h2bpIm9hSYqEz8xx1qtz-41">
          <mxGeometry relative="1" as="geometry" />
        </mxCell>
        <mxCell id="h2bpIm9hSYqEz8xx1qtz-40" value="&lt;i&gt;Пользователь вошёл&lt;br&gt;&amp;nbsp;в аккаунт админа?&lt;/i&gt;" style="rhombus;whiteSpace=wrap;html=1;rounded=1;shadow=0;glass=0;sketch=0;fontFamily=Helvetica;arcSize=0;" vertex="1" parent="1">
          <mxGeometry x="1150" y="280" width="220" height="90" as="geometry" />
        </mxCell>
        <mxCell id="h2bpIm9hSYqEz8xx1qtz-41" value="&lt;i&gt;Пользователь вошёл&lt;br&gt;&amp;nbsp;в аккаунт покупателя?&lt;/i&gt;" style="rhombus;whiteSpace=wrap;html=1;rounded=1;shadow=0;glass=0;sketch=0;fontFamily=Helvetica;arcSize=0;" vertex="1" parent="1">
          <mxGeometry x="1410" y="280" width="220" height="90" as="geometry" />
        </mxCell>
        <mxCell id="h2bpIm9hSYqEz8xx1qtz-44" value="А" style="ellipse;whiteSpace=wrap;html=1;aspect=fixed;rounded=1;shadow=0;glass=0;sketch=0;fontFamily=Helvetica;fontSize=12;fontColor=default;" vertex="1" parent="1">
          <mxGeometry x="440" y="180" width="60" height="60" as="geometry" />
        </mxCell>
        <mxCell id="h2bpIm9hSYqEz8xx1qtz-50" style="edgeStyle=orthogonalEdgeStyle;rounded=0;orthogonalLoop=1;jettySize=auto;html=1;exitX=1;exitY=0.5;exitDx=0;exitDy=0;strokeWidth=1;fontFamily=Helvetica;fontSize=11;fontColor=default;endSize=4;" edge="1" parent="1" source="h2bpIm9hSYqEz8xx1qtz-46" target="h2bpIm9hSYqEz8xx1qtz-47">
          <mxGeometry relative="1" as="geometry" />
        </mxCell>
        <mxCell id="h2bpIm9hSYqEz8xx1qtz-46" value="А" style="ellipse;whiteSpace=wrap;html=1;aspect=fixed;rounded=1;shadow=0;glass=0;sketch=0;fontFamily=Helvetica;fontSize=12;fontColor=default;" vertex="1" parent="1">
          <mxGeometry x="1220" y="495" width="60" height="60" as="geometry" />
        </mxCell>
        <mxCell id="h2bpIm9hSYqEz8xx1qtz-51" style="edgeStyle=orthogonalEdgeStyle;rounded=0;orthogonalLoop=1;jettySize=auto;html=1;exitX=1;exitY=0.5;exitDx=0;exitDy=0;entryX=0;entryY=0.5;entryDx=0;entryDy=0;strokeWidth=1;fontFamily=Helvetica;fontSize=11;fontColor=default;endSize=4;" edge="1" parent="1" source="h2bpIm9hSYqEz8xx1qtz-47" target="h2bpIm9hSYqEz8xx1qtz-48">
          <mxGeometry relative="1" as="geometry" />
        </mxCell>
        <mxCell id="h2bpIm9hSYqEz8xx1qtz-47" value="&lt;i&gt;Программное средство&lt;br&gt;&amp;nbsp;предлагает зарегистрироваться&lt;/i&gt;" style="shape=parallelogram;perimeter=parallelogramPerimeter;whiteSpace=wrap;html=1;fixedSize=1;rounded=1;shadow=0;glass=0;sketch=0;fontFamily=Helvetica;arcSize=0;align=center;" vertex="1" parent="1">
          <mxGeometry x="1310" y="480" width="220" height="90" as="geometry" />
        </mxCell>
        <mxCell id="h2bpIm9hSYqEz8xx1qtz-52" style="edgeStyle=orthogonalEdgeStyle;rounded=0;orthogonalLoop=1;jettySize=auto;html=1;exitX=1;exitY=0.5;exitDx=0;exitDy=0;strokeWidth=1;fontFamily=Helvetica;fontSize=11;fontColor=default;endSize=4;" edge="1" parent="1" source="h2bpIm9hSYqEz8xx1qtz-48" target="h2bpIm9hSYqEz8xx1qtz-49">
          <mxGeometry relative="1" as="geometry" />
        </mxCell>
        <mxCell id="h2bpIm9hSYqEz8xx1qtz-48" value="&lt;i&gt;Пользователь вводит&lt;br&gt;&amp;nbsp;логин и пароль&lt;/i&gt;" style="shape=parallelogram;perimeter=parallelogramPerimeter;whiteSpace=wrap;html=1;fixedSize=1;rounded=1;shadow=0;glass=0;sketch=0;fontFamily=Helvetica;arcSize=0;align=center;" vertex="1" parent="1">
          <mxGeometry x="1570" y="480" width="220" height="90" as="geometry" />
        </mxCell>
        <mxCell id="h2bpIm9hSYqEz8xx1qtz-53" style="edgeStyle=orthogonalEdgeStyle;rounded=0;orthogonalLoop=1;jettySize=auto;html=1;exitX=1;exitY=0.5;exitDx=0;exitDy=0;strokeWidth=1;fontFamily=Helvetica;fontSize=11;fontColor=default;endSize=4;" edge="1" parent="1" source="h2bpIm9hSYqEz8xx1qtz-49">
          <mxGeometry relative="1" as="geometry">
            <mxPoint x="2070" y="525" as="targetPoint" />
          </mxGeometry>
        </mxCell>
        <mxCell id="h2bpIm9hSYqEz8xx1qtz-49" value="&lt;i&gt;&lt;font style=&quot;font-size: 11px;&quot;&gt;Программное средство&lt;br&gt;&amp;nbsp;выводит информацию о результате регситрации&lt;/font&gt;&lt;/i&gt;" style="shape=parallelogram;perimeter=parallelogramPerimeter;whiteSpace=wrap;html=1;fixedSize=1;rounded=1;shadow=0;glass=0;sketch=0;fontFamily=Helvetica;arcSize=0;align=center;" vertex="1" parent="1">
          <mxGeometry x="1810" y="480" width="220" height="90" as="geometry" />
        </mxCell>
        <mxCell id="h2bpIm9hSYqEz8xx1qtz-54" value="Б" style="ellipse;whiteSpace=wrap;html=1;aspect=fixed;rounded=1;shadow=0;glass=0;sketch=0;fontFamily=Helvetica;fontSize=12;fontColor=default;" vertex="1" parent="1">
          <mxGeometry x="2068" y="495" width="60" height="60" as="geometry" />
        </mxCell>
        <mxCell id="h2bpIm9hSYqEz8xx1qtz-56" style="edgeStyle=orthogonalEdgeStyle;rounded=0;orthogonalLoop=1;jettySize=auto;html=1;exitX=0.5;exitY=1;exitDx=0;exitDy=0;entryX=0;entryY=0.5;entryDx=0;entryDy=0;strokeWidth=1;fontFamily=Helvetica;fontSize=11;fontColor=default;endSize=4;" edge="1" parent="1" source="h2bpIm9hSYqEz8xx1qtz-55" target="h2bpIm9hSYqEz8xx1qtz-24">
          <mxGeometry relative="1" as="geometry" />
        </mxCell>
        <mxCell id="h2bpIm9hSYqEz8xx1qtz-55" value="Б" style="ellipse;whiteSpace=wrap;html=1;aspect=fixed;rounded=1;shadow=0;glass=0;sketch=0;fontFamily=Helvetica;fontSize=12;fontColor=default;" vertex="1" parent="1">
          <mxGeometry x="300" y="180" width="60" height="60" as="geometry" />
        </mxCell>
        <mxCell id="h2bpIm9hSYqEz8xx1qtz-57" value="&lt;font style=&quot;font-size: 12px;&quot;&gt;Да&lt;/font&gt;" style="text;html=1;strokeColor=none;fillColor=none;align=center;verticalAlign=middle;whiteSpace=wrap;rounded=0;shadow=0;glass=0;sketch=0;fontFamily=Helvetica;fontSize=4;fontColor=default;" vertex="1" parent="1">
          <mxGeometry x="460" y="250" width="60" height="30" as="geometry" />
        </mxCell>
      </root>
    </mxGraphModel>
  </diagram>
</mxfile>
